<svg width="64" height="63.5" viewBox="0 0 64 63.5" fill="none" xmlns="http://www.w3.org/2000/svg">
<g clip-path="url(#clip0_6_48)">
<path d="M0.5 53.2615C0.500657 55.01 1.20638 56.6867 2.46206 57.923C3.71775 59.1594 5.42063 59.8543 7.19643 59.8549H68.8036C70.5794 59.8543 72.2823 59.1594 73.5379 57.923C74.7936 56.6867 75.4993 55.01 75.5 53.2615V15.4945H0.5V53.2615ZM49.1964 32.0967C48.9312 31.8704 48.7666 31.5507 48.738 31.2063C48.7094 30.8619 48.819 30.5202 49.0433 30.2545C49.2677 29.9887 49.5889 29.8201 49.938 29.7849C50.2871 29.7496 50.6364 29.8505 50.9108 30.0659L58.9464 36.6593C59.0962 36.7842 59.2166 36.9397 59.2992 37.1151C59.3818 37.2904 59.4245 37.4814 59.4245 37.6747C59.4245 37.868 59.3818 38.0589 59.2992 38.2343C59.2166 38.4096 59.0962 38.5652 58.9464 38.6901L50.9107 45.2835C50.7753 45.3946 50.619 45.4783 50.4507 45.5298C50.2825 45.5814 50.1055 45.5998 49.93 45.584C49.7545 45.5681 49.5839 45.5184 49.4279 45.4376C49.2719 45.3568 49.1337 45.2465 49.021 45.1131C48.9084 44.9797 48.8236 44.8256 48.7714 44.6599C48.7192 44.4941 48.7008 44.3199 48.7171 44.1471C48.7334 43.9743 48.7841 43.8064 48.8663 43.6529C48.9486 43.4995 49.0608 43.3635 49.1964 43.2527L56 37.6747L49.1964 32.0967ZM31.5982 43.4505L42.3125 30.2637C42.5367 29.9975 42.8581 29.8288 43.2075 29.7938C43.5568 29.7588 43.9062 29.8603 44.1802 30.0765C44.4543 30.2927 44.6311 30.6063 44.6725 30.9497C44.714 31.293 44.6167 31.6387 44.4018 31.9121L33.6875 45.0989C33.4625 45.3624 33.1417 45.5288 32.7937 45.5625C32.4457 45.5962 32.0982 45.4946 31.8253 45.2793C31.5524 45.064 31.3759 44.7522 31.3335 44.4104C31.291 44.0687 31.3861 43.7242 31.5982 43.4505ZM17.0536 36.6593L25.0893 30.0659C25.3638 29.8516 25.7126 29.7516 26.0611 29.7873C26.4096 29.823 26.73 29.9914 26.954 30.2567C27.1779 30.522 27.2875 30.863 27.2594 31.2069C27.2313 31.5507 27.0677 31.8701 26.8036 32.0967L20 37.6747L26.8036 43.2527C27.0689 43.479 27.2336 43.7986 27.2622 44.1431C27.2909 44.4876 27.1813 44.8293 26.9569 45.0951C26.7325 45.3609 26.4113 45.5295 26.0621 45.5647C25.7129 45.5999 25.3636 45.4989 25.0892 45.2834L17.0535 38.69C16.9037 38.5651 16.7833 38.4096 16.7007 38.2342C16.6182 38.0589 16.5754 37.8679 16.5754 37.6746C16.5754 37.4814 16.6182 37.2904 16.7008 37.1151C16.7834 36.9397 16.9037 36.7842 17.0536 36.6593ZM68.8036 0.14502H7.19643C5.42062 0.145652 3.71773 0.840516 2.46205 2.07688C1.20636 3.31325 0.500642 4.98994 0.5 6.73843V12.8571H75.5V6.73843C75.4994 4.98994 74.7936 3.31325 73.5379 2.07688C72.2823 0.840516 70.5794 0.145652 68.8036 0.14502ZM11.2143 7.81974C10.8637 7.81283 10.5299 7.67085 10.2845 7.4243C10.039 7.17774 9.90155 6.84626 9.90156 6.50102C9.90157 6.15579 10.0391 5.82431 10.2845 5.57777C10.53 5.33123 10.8638 5.18928 11.2144 5.18238C11.5649 5.1893 11.8988 5.33127 12.1442 5.57783C12.3896 5.82438 12.5271 6.15586 12.5271 6.5011C12.5271 6.84634 12.3896 7.17781 12.1441 7.42435C11.8987 7.6709 11.5648 7.81285 11.2143 7.81974ZM16.5714 7.81974C16.2209 7.81283 15.887 7.67085 15.6416 7.4243C15.3962 7.17774 15.2587 6.84626 15.2587 6.50102C15.2587 6.15579 15.3962 5.82431 15.6417 5.57777C15.8871 5.33123 16.2209 5.18928 16.5715 5.18238C16.9221 5.1893 17.2559 5.33127 17.5013 5.57783C17.7468 5.82438 17.8842 6.15586 17.8842 6.5011C17.8842 6.84634 17.7467 7.17781 17.5013 7.42435C17.2558 7.6709 16.922 7.81285 16.5714 7.81974ZM21.9286 7.81974C21.578 7.81283 21.2442 7.67085 20.9987 7.4243C20.7533 7.17774 20.6158 6.84626 20.6158 6.50102C20.6159 6.15579 20.7533 5.82431 20.9988 5.57777C21.2442 5.33123 21.5781 5.18928 21.9287 5.18238C22.2792 5.1893 22.613 5.33127 22.8585 5.57783C23.1039 5.82438 23.2414 6.15586 23.2414 6.5011C23.2414 6.84634 23.1039 7.17781 22.8584 7.42435C22.613 7.6709 22.2791 7.81285 21.9286 7.81974ZM64.7857 7.81974H54.0714C53.7197 7.8146 53.3841 7.6734 53.1372 7.42665C52.8903 7.1799 52.7519 6.84742 52.7519 6.50103C52.7519 6.15464 52.8903 5.82217 53.1372 5.57543C53.3841 5.32869 53.7197 5.18751 54.0715 5.18238H64.7857C65.1375 5.18752 65.4731 5.32871 65.72 5.57545C65.9669 5.82219 66.1053 6.15468 66.1053 6.50106C66.1053 6.84745 65.9669 7.17993 65.72 7.42667C65.4731 7.67341 65.1375 7.81461 64.7857 7.81974Z" fill="#407194"/>
</g>
<defs>
<clipPath id="clip0_6_48">
<rect width="75" height="60" fill="white" transform="translate(0.5)"/>
</clipPath>
</defs>
</svg>
