<svg width="64" height="63.5" viewBox="0 0 64 63.5" fill="none" xmlns="http://www.w3.org/2000/svg">
<g clip-path="url(#clip0_6_53)">
<path d="M17 56.5C15.9639 56.5 15.125 57.3389 15.125 58.375V62.125C15.125 63.1611 15.9639 64 17 64C18.0361 64 18.875 63.1611 18.875 62.125V58.375C18.875 57.3389 18.0361 56.5 17 56.5Z" fill="#EFE2DD"/>
<path d="M25.8257 53.2993C25.0933 52.5669 23.9067 52.5669 23.1743 53.2993C22.4419 54.0317 22.4419 55.2183 23.1743 55.9507L26.9243 59.7007C27.2905 60.0669 27.77 60.25 28.25 60.25C28.7295 60.25 29.2095 60.0669 29.5757 59.7007C30.3081 58.9683 30.3081 57.7817 29.5757 57.0493L25.8257 53.2993Z" fill="#EFE2DD"/>
<path d="M8.17432 53.2993L4.42432 57.0493C3.69189 57.7817 3.69189 58.9683 4.42432 59.7007C5.15674 60.4331 6.34326 60.4331 7.07568 59.7007L10.8257 55.9507C11.5581 55.2183 11.5581 54.0317 10.8257 53.2993C10.0933 52.5669 8.90674 52.5669 8.17432 53.2993Z" fill="#EFE2DD"/>
<path d="M47 7.5C48.0361 7.5 48.875 6.66113 48.875 5.625V1.875C48.875 0.838867 48.0361 0 47 0C45.9639 0 45.125 0.838867 45.125 1.875V5.625C45.125 6.66113 45.9639 7.5 47 7.5Z" fill="#EFE2DD"/>
<path d="M55.8257 10.7007L59.5757 6.95068C60.3081 6.21826 60.3081 5.03174 59.5757 4.29932C58.8433 3.56689 57.6567 3.56689 56.9243 4.29932L53.1743 8.04932C52.4419 8.78174 52.4419 9.96826 53.1743 10.7007C53.9067 11.4331 55.0933 11.4331 55.8257 10.7007Z" fill="#EFE2DD"/>
<path d="M38.1743 10.7007C38.9067 11.4331 40.0933 11.4331 40.8257 10.7007C41.5581 9.96826 41.5581 8.78174 40.8257 8.04932L37.0757 4.29932C36.3433 3.56689 35.1567 3.56689 34.4243 4.29932C33.6919 5.03174 33.6919 6.21826 34.4243 6.95068L38.1743 10.7007Z" fill="#EFE2DD"/>
<path d="M56.375 32C56.375 34.0625 58.0625 35.75 60.125 35.75H62.125C63.1753 35.75 64 36.5747 64 37.625V47C64 48.0498 63.1753 48.875 62.125 48.875H52.625V50.75C52.625 53.8623 50.1128 56.375 47 56.375C43.8872 56.375 41.375 53.8623 41.375 50.75V48.875H32L23.5625 44.2998L25.1001 32L26.1499 23.5625L32 15.125H41.375C42.4253 15.125 43.25 15.9497 43.25 17V18.875C43.25 20.9375 44.9375 22.625 47 22.625C49.0625 22.625 50.75 20.9375 50.75 18.875V17C50.75 15.9497 51.5747 15.125 52.625 15.125H62.125C63.1753 15.125 64 15.9497 64 17V26.375C64 27.4248 63.1753 28.25 62.125 28.25H60.125C58.0625 28.25 56.375 29.9375 56.375 32Z" fill="#FFB976"/>
<path d="M64 37.625V47C64 48.0498 63.1753 48.875 62.125 48.875H52.625V50.75C52.625 53.8623 50.1128 56.375 47 56.375C43.8872 56.375 41.375 53.8623 41.375 50.75V48.875H32L23.5625 44.2998L25.1001 32H56.375C56.375 34.0625 58.0625 35.75 60.125 35.75H62.125C63.1753 35.75 64 36.5747 64 37.625Z" fill="#FDD1A7"/>
<path d="M39.5 32C39.5 34.0625 37.8125 35.75 35.75 35.75H33.875C32.8247 35.75 32 36.5747 32 37.625V48.875H22.625C21.5747 48.875 20.75 48.0498 20.75 47V45.125C20.75 43.0625 19.0625 41.375 17 41.375C14.9375 41.375 13.25 43.0625 13.25 45.125V47C13.25 48.0498 12.4253 48.875 11.375 48.875H1.875C0.824707 48.875 0 48.0498 0 47V37.625C0 36.5747 0.824707 35.75 1.875 35.75H3.875C5.9375 35.75 7.625 34.0625 7.625 32C7.625 29.9375 5.9375 28.25 3.875 28.25H1.875C0.824707 28.25 0 27.4248 0 26.375V17C0 15.9497 0.824707 15.125 1.875 15.125H11.375V13.25C11.375 10.1372 13.8872 7.625 17 7.625C20.1128 7.625 22.625 10.1372 22.625 13.25V15.125H32V26.375C32 27.4248 32.8247 28.25 33.875 28.25H35.75C37.8125 28.25 39.5 29.9375 39.5 32Z" fill="#8869FF"/>
<path d="M39.5 32C39.5 34.0625 37.8125 35.75 35.75 35.75H33.875C32.8247 35.75 32 36.5747 32 37.625V48.875H22.625C21.5747 48.875 20.75 48.0498 20.75 47V45.125C20.75 43.0625 19.0625 41.375 17 41.375C14.9375 41.375 13.25 43.0625 13.25 45.125V47C13.25 48.0498 12.4253 48.875 11.375 48.875H1.875C0.824707 48.875 0 48.0498 0 47V37.625C0 36.5747 0.824707 35.75 1.875 35.75H3.875C5.9375 35.75 7.625 34.0625 7.625 32H39.5Z" fill="#9E85FF"/>
</g>
<defs>
<clipPath id="clip0_6_53">
<rect width="64" height="64" fill="white"/>
</clipPath>
</defs>
</svg>
