<svg width="64" height="63.5" viewBox="0 0 64 63.5" fill="none" xmlns="http://www.w3.org/2000/svg">
<g clip-path="url(#clip0_6_104)">
<path d="M26.943 50.0239L23.7704 59.1016H41.2296L38.057 50.0239H26.943Z" fill="#DDEBFD"/>
<path d="M39.3639 53.7634L38.057 50.0239H26.943L25.6361 53.7634H39.3639Z" fill="#BED9FD"/>
<path d="M17.932 61.5341V63.2162C17.932 63.5338 18.1895 63.7913 18.5071 63.7913H46.4928C46.8104 63.7913 47.0679 63.5338 47.0679 63.2162V61.5341C47.0679 60.1907 45.9789 59.1016 44.6354 59.1016H20.3645C19.0211 59.1016 17.932 60.1906 17.932 61.5341Z" fill="#BED9FD"/>
<path d="M0.5 48.4377V34.295C0.5 33.4189 1.21025 32.7087 2.08625 32.7087H62.9137C63.7899 32.7087 64.5 33.419 64.5 34.295V48.4377C64.5 49.3139 63.7897 50.024 62.9137 50.024H2.08625C1.21025 50.024 0.5 49.3139 0.5 48.4377H0.5Z" fill="#DDEBFD"/>
<path d="M64.5 44.1546H0.5V1.79499C0.5 0.918865 1.21025 0.20874 2.08625 0.20874H62.9137C63.7899 0.20874 64.5 0.91899 64.5 1.79499V44.1546Z" fill="#407194"/>
<path d="M4.94165 5.28489V39.0785C4.94165 39.4289 5.22578 39.713 5.57615 39.713H59.4238C59.7742 39.713 60.0583 39.4289 60.0583 39.0785V5.28489C60.0583 4.93439 59.7742 4.65039 59.4238 4.65039H5.57628C5.22578 4.65027 4.94165 4.93439 4.94165 5.28489Z" fill="#DDEBFD"/>
<path d="M50.2694 31.965C49.7361 31.965 49.3037 31.5326 49.3037 30.9993V29.9693C49.3037 29.2634 49.8316 28.6671 50.5316 28.5823C51.6088 28.4519 52.4209 27.5338 52.4209 26.4465C52.4209 25.8356 52.1597 25.2513 51.7041 24.8433C51.2424 24.4298 50.6444 24.2404 50.0207 24.309C49.0486 24.4164 48.2558 25.1975 48.1357 26.1665C48.0701 26.6958 47.5882 27.0718 47.0583 27.006C46.5291 26.9403 46.1532 26.458 46.2188 25.9286C46.4479 24.0821 47.9577 22.5935 49.8087 22.3891C50.9686 22.2608 52.1293 22.631 52.9928 23.4044C53.8569 24.1784 54.3526 25.2871 54.3526 26.4466C54.3526 28.348 53.0422 29.9771 51.2353 30.4146V30.9994C51.2353 31.5326 50.8029 31.965 50.2694 31.965Z" fill="#407194"/>
<path d="M50.2694 36.4191C49.736 36.4191 49.3036 35.9867 49.3036 35.4534V35.1072C49.3036 34.5739 49.736 34.1415 50.2694 34.1415C50.8028 34.1415 51.2352 34.5739 51.2352 35.1072V35.4534C51.2353 35.9867 50.8029 36.4191 50.2694 36.4191Z" fill="#407194"/>
<path d="M51.4614 12.4944H30.772C30.2386 12.4944 29.8063 12.062 29.8063 11.5286C29.8063 10.9952 30.2386 10.5629 30.772 10.5629H51.4614C51.9948 10.5629 52.4271 10.9952 52.4271 11.5286C52.4271 12.062 51.9948 12.4944 51.4614 12.4944Z" fill="#80B6FC"/>
<path d="M51.4614 18.688H30.772C30.2386 18.688 29.8063 18.2556 29.8063 17.7222C29.8063 17.1888 30.2386 16.7565 30.772 16.7565H51.4614C51.9948 16.7565 52.4271 17.1888 52.4271 17.7222C52.4271 18.2556 51.9948 18.688 51.4614 18.688Z" fill="#80B6FC"/>
<path d="M39.5023 24.8815H30.772C30.2386 24.8815 29.8063 24.4491 29.8063 23.9157C29.8063 23.3823 30.2386 22.95 30.772 22.95H39.5023C40.0357 22.95 40.468 23.3823 40.468 23.9157C40.468 24.4491 40.0357 24.8815 39.5023 24.8815Z" fill="#80B6FC"/>
<path d="M18.878 14.8835C18.878 14.8597 18.8859 14.8279 18.8939 14.7962L20.3722 9.94792C20.4596 9.66967 20.8174 9.53467 21.1829 9.53467C21.5484 9.53467 21.9061 9.66979 21.9936 9.94792L23.4799 14.7962C23.4877 14.8279 23.4957 14.8597 23.4957 14.8835C23.4957 15.1777 23.0427 15.3922 22.701 15.3922C22.5024 15.3922 22.3434 15.3285 22.2956 15.1617L22.0254 14.1682H20.3482L20.078 15.1617C20.0304 15.3285 19.8714 15.3922 19.6726 15.3922C19.331 15.3923 18.878 15.1777 18.878 14.8835ZM21.763 13.2145L21.1827 11.0844L20.6025 13.2145H21.763Z" fill="#365F7E"/>
<path d="M14.6813 13.8197C15.167 12.6478 14.6108 11.304 13.4389 10.8183C12.2671 10.3326 10.9233 10.8888 10.4376 12.0606C9.95182 13.2325 10.508 14.5763 11.6799 15.062C12.8518 15.5477 14.1955 14.9915 14.6813 13.8197Z" fill="#80B6FC"/>
<path d="M14.6824 23.9326C15.1682 22.7607 14.6119 21.417 13.4401 20.9312C12.2682 20.4455 10.9245 21.0017 10.4387 22.1736C9.95298 23.3454 10.5092 24.6892 11.6811 25.1749C12.8529 25.6607 14.1967 25.1044 14.6824 23.9326Z" fill="#80B6FC"/>
<path d="M14.6836 34.0455C15.1693 32.8736 14.6131 31.5299 13.4412 31.0441C12.2694 30.5584 10.9256 31.1146 10.4399 32.2865C9.95413 33.4583 10.5103 34.8021 11.6822 35.2878C12.8541 35.7736 14.1978 35.2174 14.6836 34.0455Z" fill="#80B6FC"/>
<path d="M19.2754 20.0735C19.2754 19.8191 19.5456 19.692 19.8159 19.692H21.4453C22.24 19.692 23.0348 19.9781 23.0348 21.1068C23.0348 21.7505 22.7804 22.1718 22.3593 22.3545C22.844 22.5373 23.1779 22.8314 23.1779 23.6261V23.793C23.1779 25.0488 22.4785 25.5018 21.5804 25.5018H19.816C19.4823 25.5018 19.2755 25.3269 19.2755 25.1283V20.0735H19.2754ZM20.5074 21.8776H21.3419C21.6439 21.8776 21.7949 21.5995 21.7949 21.3293C21.7949 21.0511 21.6439 20.7729 21.3419 20.7729H20.5074V21.8776ZM21.3021 24.421C21.6995 24.421 21.9379 24.1985 21.9379 23.6898V23.5626C21.9379 23.0221 21.6995 22.8314 21.3021 22.8314H20.5074V24.421H21.3021Z" fill="#365F7E"/>
<path d="M21.167 30.8828C20.7139 30.8828 20.4516 31.1371 20.4516 31.6775V33.7838C20.4516 34.3243 20.7139 34.5785 21.1749 34.5785C21.8107 34.5785 21.8505 34.0936 21.8742 33.7838C21.8981 33.4896 22.1684 33.4101 22.4862 33.4101C22.9155 33.4101 23.1141 33.5214 23.1141 33.9984C23.1141 35.0555 22.2557 35.6595 21.1192 35.6595C20.078 35.6595 19.2117 35.1509 19.2117 33.7839V31.6776C19.2117 30.3105 20.0781 29.8019 21.1192 29.8019C22.2557 29.8019 23.1141 30.3741 23.1141 31.3835C23.1141 31.8604 22.9155 31.9716 22.4942 31.9716C22.1605 31.9716 21.8902 31.8841 21.8744 31.5981C21.8664 31.3914 21.8425 30.8828 21.167 30.8828Z" fill="#365F7E"/>
<path d="M43.1115 29.1758H31.1253C29.8444 29.1758 28.8062 30.2142 28.8062 31.4949V43.4812C28.8062 44.7748 30.4485 45.3294 31.2328 44.3007L34.3249 40.2447C34.402 40.1435 34.5505 40.1335 34.6404 40.2235L41.7227 47.3058C42.2185 47.8017 43.0224 47.8017 43.5183 47.3058L46.9362 43.8879C47.432 43.392 47.432 42.5882 46.9362 42.0923L39.8538 35.01C39.7639 34.9202 39.7739 34.7715 39.8749 34.6945L43.9309 31.6024C44.9598 30.8182 44.4052 29.1758 43.1115 29.1758Z" fill="#E27C48"/>
</g>
<defs>
<clipPath id="clip0_6_104">
<rect width="64" height="64" fill="white" transform="translate(0.5)"/>
</clipPath>
</defs>
</svg>
