<svg width="64" height="63.5" viewBox="0 0 64 63.5" fill="none" xmlns="http://www.w3.org/2000/svg">
<g clip-path="url(#clip0_6_76)">
<path d="M62.6426 60.9614V31.6601C62.6426 29.9814 61.2826 28.6214 59.6053 28.6214H25.344C24.0826 28.6214 22.9506 27.8387 22.504 26.6574L21.644 24.3827C21.1973 23.2014 20.0666 22.4214 18.804 22.4214H4.39329C2.71596 22.4214 1.35596 23.7814 1.35596 25.4601V60.9614C1.35596 62.6401 2.71596 64.0001 4.39329 64.0001H59.6053C61.2826 64.0001 62.6426 62.6401 62.6426 60.9614Z" fill="#FFD599"/>
<path d="M36.4813 29.164C36.4813 36.056 30.896 41.6573 23.988 41.6573C17.08 41.6573 11.48 36.056 11.48 29.164C11.48 26.6906 12.196 24.372 13.44 22.428H18.808C20.068 22.428 21.204 23.2053 21.64 24.388L22.5106 26.66C22.9466 27.8426 24.0826 28.62 25.3426 28.62H36.4667C36.4813 28.7906 36.4813 28.9786 36.4813 29.164Z" fill="#FFD599"/>
<path d="M62.6493 31.6533V60.964C62.6493 62.644 61.28 63.9973 59.6 63.9973H4.39998C2.71998 63.9973 1.35065 62.644 1.35065 60.964V59.548C5.47331 61.6333 10.1253 62.8 15.0573 62.8C31.9373 62.8 45.6133 49.124 45.6133 32.244C45.6133 31.0147 45.536 29.8013 45.396 28.6187H59.6C61.28 28.62 62.6493 29.9733 62.6493 31.6533Z" fill="#FCC67E"/>
<path d="M22.48 58.872H7.63462C6.99062 58.872 6.46796 58.3494 6.46796 57.7054C6.46796 57.0614 6.99062 56.5387 7.63462 56.5387H22.48C23.124 56.5387 23.6466 57.0614 23.6466 57.7054C23.6466 58.3494 23.124 58.872 22.48 58.872Z" fill="#99A3C0"/>
<path d="M30.544 52.9267H18.824C18.18 52.9267 17.6573 52.4041 17.6573 51.7601C17.6573 51.1161 18.18 50.5934 18.824 50.5934H30.544C31.188 50.5934 31.7106 51.1161 31.7106 51.7601C31.7106 52.4041 31.188 52.9267 30.544 52.9267Z" fill="#99A3C0"/>
<path d="M13.4173 52.9267H7.63462C6.99062 52.9267 6.46796 52.4041 6.46796 51.7601C6.46796 51.1161 6.99062 50.5934 7.63462 50.5934H13.4173C14.0613 50.5934 14.584 51.1161 14.584 51.7601C14.584 52.4041 14.0613 52.9267 13.4173 52.9267Z" fill="#99A3C0"/>
<path d="M30.544 46.9826H24.4466C23.8026 46.9826 23.28 46.46 23.28 45.816C23.28 45.172 23.8026 44.6493 24.4466 44.6493H30.544C31.188 44.6493 31.7106 45.172 31.7106 45.816C31.7106 46.46 31.188 46.9826 30.544 46.9826Z" fill="#99A3C0"/>
<path d="M18.8253 46.9826H7.63462C6.99062 46.9826 6.46796 46.46 6.46796 45.816C6.46796 45.172 6.99062 44.6493 7.63462 44.6493H18.8253C19.4693 44.6493 19.992 45.172 19.992 45.816C19.992 46.46 19.4693 46.9826 18.8253 46.9826Z" fill="#99A3C0"/>
<path d="M45.052 0H39.0347V14.8547H33.1707L42.044 24.196L50.736 14.8547H45.052V0Z" fill="#C1F4B9"/>
<path d="M25.1453 0H19.128V7.31867H13.264L22.136 16.66L30.828 7.31867H25.1453V0Z" fill="#FF9797"/>
<path d="M36.4813 29.164C36.4813 36.056 30.896 41.6573 23.988 41.6573C17.08 41.6573 11.48 36.056 11.48 29.164C11.48 26.6906 12.196 24.372 13.44 22.428H18.808C20.068 22.428 21.204 23.2053 21.64 24.388L22.5106 26.66C22.9466 27.8426 24.0826 28.62 25.3426 28.62H36.4667C36.4813 28.7906 36.4813 28.9786 36.4813 29.164Z" fill="#FFDDAD"/>
</g>
<defs>
<clipPath id="clip0_6_76">
<rect width="64" height="64" fill="white"/>
</clipPath>
</defs>
</svg>
