<svg width="64" height="63.5" viewBox="0 0 64 63.5" fill="none" xmlns="http://www.w3.org/2000/svg">
<g clip-path="url(#clip0_6_68)">
<path d="M62.5752 26.4505L59.3759 25.6632C58.7008 22.6261 57.5011 19.7389 55.8511 17.1142L57.4636 14.4147C57.9131 13.6649 57.801 12.7275 57.2009 12.1275L54.5764 9.50288L51.8769 6.80339C51.2769 6.20339 50.3395 6.09101 49.5893 6.54089L46.8898 8.15314C44.2653 6.50339 41.378 5.30351 38.3408 4.62864L37.5535 1.42902C37.3659 0.604024 36.6162 0.00415039 35.7539 0.00415039H28.2548C27.3926 0.00415039 26.6428 0.603899 26.4552 1.42902L25.6679 4.62864C22.6306 5.30351 19.7435 6.50339 17.119 8.15314L14.4192 6.54089C13.6693 6.09089 12.732 6.20326 12.132 6.80339L6.80735 12.1276C6.20736 12.7274 6.09498 13.6648 6.54486 14.4149L8.1571 17.1144C6.50736 19.739 5.30748 22.6262 4.63261 25.6634L1.43299 26.4506C0.607992 26.6382 0.00811768 27.388 0.00811768 28.2505V35.7495C0.00811768 36.6117 0.607867 37.3617 1.43299 37.5491L4.63261 38.3366C5.49486 42.1236 7.18223 45.7231 9.50697 48.8353L15.1687 54.497C18.281 56.8218 21.8802 58.509 25.6674 59.3714L26.4547 62.571C26.6423 63.3958 27.3921 63.9959 28.2543 63.9959H35.7534C36.6157 63.9959 37.3654 63.3959 37.553 62.571L38.3403 59.3714C41.3777 58.6965 44.2648 57.4967 46.8893 55.8468L49.5888 57.459C50.3389 57.909 51.2763 57.7967 51.8764 57.1965L57.2005 51.8723C57.8005 51.2726 57.9126 50.3352 57.4633 49.5851L55.8508 46.8853C57.5008 44.2607 58.7004 41.3737 59.3755 38.3366L62.5749 37.5491C63.4001 37.3616 63.9997 36.6117 63.9997 35.7495V28.2505C64 27.3878 63.4005 26.6381 62.5752 26.4505ZM32.0041 48.8728C27.6173 48.8728 23.6051 47.2231 20.6428 44.4108C20.4553 44.2982 20.3055 44.1483 20.1181 43.9608C17.0435 40.9237 15.1311 36.6867 15.1311 31.9998C15.1311 22.6635 22.6676 15.127 32.0039 15.127C36.6908 15.127 40.9278 17.0392 43.9647 20.1137C44.1523 20.3014 44.3025 20.4514 44.4152 20.6386C47.2273 23.6009 48.8769 27.6127 48.8769 31.9998C48.8769 41.3362 41.3404 48.8728 32.0041 48.8728Z" fill="#8793FF"/>
<path d="M64 28.2503V35.7493C64 36.6115 63.4005 37.3615 62.5751 37.5489L59.3758 38.3364C58.7007 41.3735 57.501 44.2605 55.851 46.8851L57.4635 49.5849C57.913 50.3347 57.8009 51.2721 57.2008 51.8721L51.8767 57.1963C51.2767 57.7963 50.3393 57.9087 49.5891 57.4588L46.8896 55.8466C44.2651 57.4963 41.3778 58.6962 38.3406 59.3712L37.5533 62.5708C37.3657 63.3956 36.6159 63.9957 35.7537 63.9957H28.2546C27.3923 63.9957 26.6426 63.3957 26.455 62.5708L25.6677 59.3712C21.8805 58.509 18.281 56.8216 15.169 54.4968L12.3569 51.6847L20.1184 43.9607C20.3059 44.1482 20.4557 44.2981 20.6431 44.4107C23.6054 47.2229 27.6176 48.8727 32.0043 48.8727C41.3407 48.8727 48.8772 41.3362 48.8772 31.9999C48.8772 27.6128 47.2277 23.6009 44.4154 20.6387C44.3028 20.4512 44.1527 20.3013 43.9649 20.1138L54.5763 9.50281L57.2008 12.1274C57.8008 12.7272 57.9129 13.6645 57.4635 14.4147L55.851 17.1142C57.501 19.7388 58.7007 22.626 59.3758 25.6632L62.5751 26.4504C63.4005 26.638 64 27.3878 64 28.2503Z" fill="#8793FF"/>
<path d="M44.7011 28.6164C44.5367 27.9614 44.0328 27.4453 43.3817 27.2657C42.7307 27.086 42.0346 27.2714 41.5572 27.749L37.3062 32C36.5996 32.7066 35.6585 33.0949 34.6552 33.0949C33.652 33.0949 32.7108 32.7068 32.0042 32C30.5432 30.539 30.5432 28.159 32.0042 26.6979L36.2843 22.4178C36.7553 21.9468 36.9371 21.2595 36.761 20.6174C36.5848 19.9753 36.0777 19.476 35.4322 19.312C33.8248 18.9037 31.7261 18.7143 29.5656 19.0944C24.2764 20.0648 20.0691 24.272 19.0969 29.5704C18.6776 31.9139 18.8644 34.2481 19.6314 36.3975C18.5645 37.4644 2.08777 53.9409 1.6449 54.384C-0.553975 56.5829 -0.553975 60.1602 1.67965 62.3938C3.89239 64.4913 7.28126 64.5796 9.61988 62.3591L27.6063 44.3726C30.4867 45.4006 33.6991 45.3797 36.8426 44.2705C41.0884 42.7721 44.0266 38.8535 44.9094 34.4385L44.9113 34.4294C45.2904 32.3091 45.1046 30.2243 44.7011 28.6164Z" fill="#AEADAD"/>
<path d="M9.62011 62.359L27.6066 44.3726C30.4869 45.4006 33.6993 45.3797 36.8429 44.2704C41.0889 42.7721 44.0269 38.8534 44.9098 34.4385L44.9117 34.4293C45.2942 32.2897 45.1014 30.1861 44.6902 28.5723C44.5255 27.9268 44.0272 27.4191 43.3845 27.2431C42.7422 27.0668 42.0558 27.2505 41.5847 27.7215L37.3064 32C36.5998 32.7066 35.6587 33.0948 34.6554 33.0948C33.6693 33.0948 32.7487 32.7117 32.0461 32.028L1.67975 62.3939C3.89249 64.4913 7.28136 64.5796 9.62011 62.359Z" fill="#949494"/>
</g>
<defs>
<clipPath id="clip0_6_68">
<rect width="64" height="64" fill="white"/>
</clipPath>
</defs>
</svg>
