<svg width="64" height="63.5" viewBox="0 0 64 63.5" fill="none" xmlns="http://www.w3.org/2000/svg">
<g clip-path="url(#clip0_6_134)">
<path d="M58.55 14.8C58.0329 13.2047 57.1663 11.7449 56.0134 10.527C54.8604 9.30918 53.4502 8.36398 51.8856 7.76036C50.321 7.15673 48.6414 6.9099 46.9692 7.03786C45.2971 7.16582 43.6746 7.66534 42.22 8.5L8.22001 28.11C6.49625 29.104 5.06468 30.5345 4.06933 32.2575C3.07397 33.9804 2.54993 35.9352 2.54993 37.925C2.54993 39.9148 3.07397 41.8696 4.06933 43.5925C5.06468 45.3155 6.49625 46.746 8.22001 47.74L42.5 67.49C43.9401 68.322 45.547 68.8241 47.2046 68.96C48.8623 69.0959 50.5294 68.8622 52.0859 68.2758C53.6423 67.6894 55.0491 66.7649 56.205 65.569C57.3609 64.373 58.2369 62.9355 58.77 61.36C63.84 46.21 63.72 30.69 58.55 14.8Z" fill="#FFFBE7"/>
<path d="M34.5 41H24.5C21.0522 41 17.7456 42.3696 15.3076 44.8076C12.8696 47.2456 11.5 50.5522 11.5 54V62C11.5 62.2652 11.6054 62.5196 11.7929 62.7071C11.9804 62.8946 12.2348 63 12.5 63V68C12.5 68.2652 12.6054 68.5196 12.7929 68.7071C12.9804 68.8946 13.2348 69 13.5 69H45.5C45.7652 69 46.0196 68.8946 46.2071 68.7071C46.3946 68.5196 46.5 68.2652 46.5 68V63C46.7652 63 47.0196 62.8946 47.2071 62.7071C47.3946 62.5196 47.5 62.2652 47.5 62V54C47.5 50.5522 46.1304 47.2456 43.6924 44.8076C41.2544 42.3696 37.9478 41 34.5 41Z" fill="#F2EEDD"/>
<path d="M38.5 32V35C38.5 35.2652 38.6054 35.5196 38.7929 35.7071C38.9804 35.8946 39.2348 36 39.5 36H41.5C42.2956 36 43.0587 35.6839 43.6213 35.1213C44.1839 34.5587 44.5 33.7956 44.5 33V29C44.5024 28.3776 44.3112 27.7699 43.9528 27.2611C43.5945 26.7523 43.0868 26.3674 42.5 26.16C42.5043 26.1068 42.5043 26.0532 42.5 26C42.5 22.5522 41.1304 19.2456 38.6924 16.8076C36.2544 14.3696 32.9478 13 29.5 13C26.0522 13 22.7456 14.3696 20.3076 16.8076C17.8696 19.2456 16.5 22.5522 16.5 26C16.4909 26.0563 16.4909 26.1137 16.5 26.17C15.9148 26.3769 15.4083 26.7602 15.0501 27.267C14.6919 27.7739 14.4997 28.3793 14.5 29V33C14.5 33.7956 14.8161 34.5587 15.3787 35.1213C15.9413 35.6839 16.7044 36 17.5 36H19.5C19.7652 36 20.0196 35.8946 20.2071 35.7071C20.3946 35.5196 20.5 35.2652 20.5 35V32C20.5 34.3869 21.4482 36.6761 23.136 38.364C24.8239 40.0518 27.1131 41 29.5 41C31.8869 41 34.1761 40.0518 35.864 38.364C37.5518 36.6761 38.5 34.3869 38.5 32ZM19.5 26H18.5C18.5 23.0826 19.6589 20.2847 21.7218 18.2218C23.7847 16.1589 26.5826 15 29.5 15C32.4174 15 35.2153 16.1589 37.2782 18.2218C39.3411 20.2847 40.5 23.0826 40.5 26H39.5C39.236 26.0075 38.9837 26.1105 38.79 26.29C38.6973 26.3834 38.624 26.4943 38.5742 26.6161C38.5245 26.7379 38.4992 26.8684 38.5 27V28C38.5 25.6131 37.5518 23.3239 35.864 21.636C34.1761 19.9482 31.8869 19 29.5 19C27.1131 19 24.8239 19.9482 23.136 21.636C21.4482 23.3239 20.5 25.6131 20.5 28V27C20.5 26.7348 20.3946 26.4804 20.2071 26.2929C20.0196 26.1054 19.7652 26 19.5 26Z" fill="#F2EEDD"/>
<path d="M15.5 56H49.5V65C49.5 65.2652 49.3946 65.5196 49.2071 65.7071C49.0196 65.8946 48.7652 66 48.5 66H16.5C16.2348 66 15.9804 65.8946 15.7929 65.7071C15.6054 65.5196 15.5 65.2652 15.5 65V56Z" fill="#F2F2F2"/>
<path d="M8 19C7.30777 19 6.63108 18.7947 6.05551 18.4101C5.47993 18.0256 5.03133 17.4789 4.76642 16.8394C4.50152 16.1999 4.4322 15.4961 4.56725 14.8172C4.7023 14.1383 5.03564 13.5146 5.52513 13.0251C6.01461 12.5356 6.63825 12.2023 7.31719 12.0673C7.99612 11.9322 8.69985 12.0015 9.33939 12.2664C9.97893 12.5313 10.5256 12.9799 10.9101 13.5555C11.2947 14.1311 11.5 14.8078 11.5 15.5C11.5 16.4283 11.1313 17.3185 10.4749 17.9749C9.8185 18.6313 8.92826 19 8 19ZM8 14C7.70333 14 7.41332 14.088 7.16665 14.2528C6.91997 14.4176 6.72771 14.6519 6.61418 14.926C6.50065 15.2001 6.47095 15.5017 6.52882 15.7926C6.5867 16.0836 6.72956 16.3509 6.93934 16.5607C7.14912 16.7704 7.41639 16.9133 7.70737 16.9712C7.99834 17.0291 8.29994 16.9994 8.57403 16.8858C8.84812 16.7723 9.08238 16.58 9.24721 16.3334C9.41203 16.0867 9.5 15.7967 9.5 15.5C9.5 15.1022 9.34197 14.7206 9.06066 14.4393C8.77936 14.158 8.39783 14 8 14Z" fill="#806BFF"/>
<path d="M58 70C57.3078 70 56.6311 69.7947 56.0555 69.4101C55.4799 69.0256 55.0313 68.4789 54.7664 67.8394C54.5015 67.1999 54.4322 66.4961 54.5673 65.8172C54.7023 65.1383 55.0356 64.5146 55.5251 64.0251C56.0146 63.5356 56.6383 63.2023 57.3172 63.0673C57.9961 62.9322 58.6999 63.0015 59.3394 63.2664C59.9789 63.5313 60.5256 63.9799 60.9101 64.5555C61.2947 65.1311 61.5 65.8078 61.5 66.5C61.5 67.4283 61.1312 68.3185 60.4749 68.9749C59.8185 69.6312 58.9283 70 58 70ZM58 65C57.7033 65 57.4133 65.088 57.1666 65.2528C56.92 65.4176 56.7277 65.6519 56.6142 65.926C56.5007 66.2001 56.4709 66.5017 56.5288 66.7926C56.5867 67.0836 56.7296 67.3509 56.9393 67.5607C57.1491 67.7704 57.4164 67.9133 57.7074 67.9712C57.9983 68.0291 58.2999 67.9994 58.574 67.8858C58.8481 67.7723 59.0824 67.58 59.2472 67.3334C59.412 67.0867 59.5 66.7967 59.5 66.5C59.5 66.1022 59.342 65.7206 59.0607 65.4393C58.7794 65.158 58.3978 65 58 65Z" fill="#806BFF"/>
<path d="M62.56 7.94L61.5 6L60.44 7.94L58.5 9L60.44 10.06L61.5 12L62.56 10.06L64.5 9L62.56 7.94Z" fill="#FF94EA"/>
<path d="M4.56 58.94L3.5 57L2.44 58.94L0.5 60L2.44 61.06L3.5 63L4.56 61.06L6.5 60L4.56 58.94Z" fill="#FF94EA"/>
<path d="M56.5 38C57.6046 38 58.5 37.1046 58.5 36C58.5 34.8954 57.6046 34 56.5 34C55.3954 34 54.5 34.8954 54.5 36C54.5 37.1046 55.3954 38 56.5 38Z" fill="#806BFF"/>
<path d="M37.5 38H27.5C24.0522 38 20.7456 39.3696 18.3076 41.8076C15.8696 44.2456 14.5 47.5522 14.5 51V59C14.5 59.2652 14.6054 59.5196 14.7929 59.7071C14.9804 59.8946 15.2348 60 15.5 60H21.5V66H43.5V60H49.5C49.7652 60 50.0196 59.8946 50.2071 59.7071C50.3946 59.5196 50.5 59.2652 50.5 59V51C50.5 47.5522 49.1304 44.2456 46.6924 41.8076C44.2544 39.3696 40.9478 38 37.5 38Z" fill="#F9B5E8"/>
<path d="M35.5 30C36.0523 30 36.5 29.5523 36.5 29C36.5 28.4477 36.0523 28 35.5 28C34.9477 28 34.5 28.4477 34.5 29C34.5 29.5523 34.9477 30 35.5 30Z" fill="#666666"/>
<path d="M29.5 30C30.0523 30 30.5 29.5523 30.5 29C30.5 28.4477 30.0523 28 29.5 28C28.9477 28 28.5 28.4477 28.5 29C28.5 29.5523 28.9477 30 29.5 30Z" fill="#666666"/>
<path d="M30.5 32C30.5 32.5304 30.7107 33.0391 31.0858 33.4142C31.4609 33.7893 31.9696 34 32.5 34C33.0304 34 33.5391 33.7893 33.9142 33.4142C34.2893 33.0391 34.5 32.5304 34.5 32H30.5Z" fill="#666666"/>
<path d="M36.5 35H28.5C28.2348 35 27.9804 35.1054 27.7929 35.2929C27.6054 35.4804 27.5 35.7348 27.5 36V40C27.5 41.3261 28.0268 42.5979 28.9645 43.5355C29.9021 44.4732 31.1739 45 32.5 45C33.8261 45 35.0979 44.4732 36.0355 43.5355C36.9732 42.5979 37.5 41.3261 37.5 40V36C37.5 35.7348 37.3946 35.4804 37.2071 35.2929C37.0196 35.1054 36.7652 35 36.5 35Z" fill="#F2F2F2"/>
<path d="M40.61 25.9999C37.1469 25.7004 33.8491 24.3855 31.13 22.2199C31.013 22.1249 30.876 22.0576 30.7293 22.023C30.5826 21.9884 30.43 21.9875 30.2828 22.0202C30.1357 22.0528 29.9979 22.1184 29.8796 22.2119C29.7614 22.3053 29.6658 22.4243 29.6 22.5599C28.76 24.2999 26.39 25.2999 24.18 26.0399C23.9798 26.1076 23.8061 26.2369 23.6839 26.4094C23.5617 26.5818 23.4974 26.7886 23.5 26.9999V28.9999C23.5 31.3869 24.4482 33.6761 26.1361 35.3639C27.8239 37.0517 30.1131 37.9999 32.5 37.9999C34.887 37.9999 37.1762 37.0517 38.864 35.3639C40.5518 33.6761 41.5 31.3869 41.5 28.9999V26.9999C41.5015 26.7527 41.4114 26.5137 41.247 26.329C41.0827 26.1444 40.8557 26.0271 40.61 25.9999Z" fill="white"/>
<path d="M38.86 18.63C37.6008 17.3723 35.9969 16.5162 34.2512 16.1699C32.5055 15.8236 30.6963 16.0027 29.0523 16.6845C27.4083 17.3663 26.0034 18.5201 25.0151 20.0003C24.0268 21.4804 23.4996 23.2203 23.5 25V27C23.5007 27.1587 23.5392 27.3149 23.6122 27.4557C23.6853 27.5965 23.7908 27.718 23.92 27.81C24.0868 27.9361 24.2909 28.003 24.5 28C24.6085 27.9988 24.7163 27.982 24.82 27.95C27.02 27.2 29.38 26.21 30.76 24.46C33.6036 26.4648 36.9249 27.6857 40.39 28C40.5303 28.0155 40.6722 28.0012 40.8065 27.9579C40.9409 27.9147 41.0645 27.8435 41.1694 27.749C41.2742 27.6546 41.3579 27.539 41.4148 27.4099C41.4718 27.2808 41.5009 27.1411 41.5 27V25C41.5036 23.8163 41.272 22.6437 40.8189 21.5502C40.3657 20.4567 39.6998 19.4641 38.86 18.63Z" fill="#F9B5E8"/>
<path d="M35.5 30C36.0523 30 36.5 29.5523 36.5 29C36.5 28.4477 36.0523 28 35.5 28C34.9477 28 34.5 28.4477 34.5 29C34.5 29.5523 34.9477 30 35.5 30Z" fill="#8C55FC"/>
<path d="M29.5 30C30.0523 30 30.5 29.5523 30.5 29C30.5 28.4477 30.0523 28 29.5 28C28.9477 28 28.5 28.4477 28.5 29C28.5 29.5523 28.9477 30 29.5 30Z" fill="#8C55FC"/>
<path d="M30.5 32C30.5 32.5304 30.7107 33.0391 31.0858 33.4142C31.4609 33.7893 31.9696 34 32.5 34C33.0304 34 33.5391 33.7893 33.9142 33.4142C34.2893 33.0391 34.5 32.5304 34.5 32H30.5Z" fill="#8C55FC"/>
<path d="M45.5 23.17C45.5048 23.1134 45.5048 23.0566 45.5 23C45.5 19.5522 44.1304 16.2456 41.6924 13.8076C39.2544 11.3696 35.9478 10 32.5 10C29.0522 10 25.7456 11.3696 23.3076 13.8076C20.8696 16.2456 19.5 19.5522 19.5 23C19.4909 23.0563 19.4909 23.1137 19.5 23.17C18.9148 23.3769 18.4083 23.7602 18.0501 24.267C17.6919 24.7739 17.4997 25.3793 17.5 26V30C17.5 30.7956 17.8161 31.5587 18.3787 32.1213C18.9413 32.6839 19.7044 33 20.5 33H22.5C22.7652 33 23.0196 32.8946 23.2071 32.7071C23.3946 32.5196 23.5 32.2652 23.5 32V24C23.5 23.7348 23.3946 23.4804 23.2071 23.2929C23.0196 23.1054 22.7652 23 22.5 23H21.5C21.5 20.0826 22.6589 17.2847 24.7218 15.2218C26.7847 13.1589 29.5826 12 32.5 12C35.4174 12 38.2153 13.1589 40.2782 15.2218C42.3411 17.2847 43.5 20.0826 43.5 23H42.5C42.236 23.0075 41.9837 23.1105 41.79 23.29C41.6973 23.3834 41.624 23.4943 41.5742 23.6161C41.5245 23.7379 41.4992 23.8684 41.5 24V32C41.5 32.2652 41.6054 32.5196 41.7929 32.7071C41.9804 32.8946 42.2348 33 42.5 33H44.5C45.2956 33 46.0587 32.6839 46.6213 32.1213C47.1839 31.5587 47.5 30.7956 47.5 30V26C47.5003 25.3793 47.3081 24.7739 46.9499 24.267C46.5917 23.7602 46.0852 23.3769 45.5 23.17Z" fill="#8C55FC"/>
<path d="M21.5 54V57V60H43.5V57V54H21.5Z" fill="#8C55FC"/>
</g>
<defs>
<clipPath id="clip0_6_134">
<rect width="64" height="64" fill="white" transform="translate(0.5)"/>
</clipPath>
</defs>
</svg>
