<svg width="36" height="36" viewBox="0 0 140 140" fill="none" xmlns="http://www.w3.org/2000/svg">
<g clip-path="url(#clip0_2_100)">
<path d="M17.9999 35.9754C27.9275 35.9754 35.9753 27.9276 35.9753 18C35.9753 8.07246 27.9275 0.0245972 17.9999 0.0245972C8.07239 0.0245972 0.0245209 8.07246 0.0245209 18C0.0245209 27.9276 8.07239 35.9754 17.9999 35.9754Z" fill="url(#paint0_linear_2_100)"/>
<path d="M14.4861 29.8913C17.0611 28.4037 18.1929 25.5519 18.3362 22.7694C18.4697 20.1203 15.8552 18.5782 13.5224 17.313C10.5718 15.7166 8.56517 12.593 8.56517 9.00982C8.56517 7.64572 8.85677 6.34588 9.38066 5.17453C9.53388 4.83351 9.14837 4.45295 8.837 4.66547C4.60139 7.58147 1.81883 12.4645 1.81883 17.995C1.81883 22.7546 3.40039 15.8155 7.03304 27.2768C7.71014 29.407 9.39549 31.2752 11.5998 30.9045C12.5981 30.7365 13.5965 30.4053 14.4861 29.8913Z" fill="#1F1F1F"/>
<path d="M9.47452 9.00983C9.47452 11.9802 11.3773 14.3921 13.7151 15.9044C15.9441 17.3476 18.5833 15.855 20.8469 14.4613C23.7036 12.7067 27.4153 12.5288 30.5142 14.3179C31.6954 15 32.674 15.9044 33.4253 16.9423C33.6477 17.2488 34.1666 17.1005 34.137 16.7298C33.7317 11.5996 30.8898 6.75611 26.1007 3.98838C21.9787 1.60616 27.1979 6.44474 15.4548 3.86482C13.2703 3.38541 10.809 3.91424 10.0281 6.00981C9.6821 6.94886 9.47452 7.98182 9.47452 9.00983Z" fill="#1F1F1F"/>
<path d="M30.0596 15.1087C27.4846 13.6211 24.45 14.0659 21.9689 15.3361C19.6064 16.542 19.5768 19.5816 19.6509 22.2307C19.7448 25.5816 18.0447 28.8831 14.9408 30.6772C13.7596 31.3593 12.4894 31.7546 11.2143 31.8881C10.8387 31.9276 10.7052 32.4515 11.0463 32.6097C15.6921 34.8189 21.3066 34.7843 26.1007 32.0215C30.2227 29.6393 23.4269 31.7398 31.5274 22.8633C33.0349 21.2126 33.8059 18.8205 32.3825 17.0956C31.74 16.3196 30.9492 15.6227 30.0596 15.1087Z" fill="#1F1F1F"/>
<path d="M18 31.3444C25.3699 31.3444 31.3444 25.3699 31.3444 18C31.3444 10.6301 25.3699 4.65558 18 4.65558C10.63 4.65558 4.65555 10.6301 4.65555 18C4.65555 25.3699 10.63 31.3444 18 31.3444Z" fill="#1F1F1F"/>
<path d="M10.0922 21.6973V14.7977H11.1845V21.7022H10.0922V21.6973Z" fill="white"/>
<path d="M15.8302 14.7974C18.1878 14.7974 19.2602 16.4827 19.2899 18.1878C19.3294 19.9325 18.2471 21.6969 15.8302 21.6969C14.9999 21.6969 14.046 21.6969 13.2157 21.6969V14.7974H15.8302ZM14.3129 20.6343H15.8302C17.5156 20.6343 18.2273 19.3938 18.1976 18.1779C18.168 17.0165 17.4563 15.8501 15.8302 15.8501H14.3129V20.6343Z" fill="white"/>
<path d="M25.9079 21.6969H20.8123C20.8123 19.3987 20.8123 17.0906 20.8123 14.7924H25.8783V15.8649H21.9145V17.7282H25.7201V18.7513H21.9145V20.6047H25.9079V21.6969Z" fill="white"/>
</g>
<defs>
<linearGradient id="paint0_linear_2_100" x1="6.53186" y1="1.65804" x2="29.5428" y2="34.4485" gradientUnits="userSpaceOnUse">
<stop stop-color="#FCECB2"/>
<stop offset="0.2604" stop-color="#FF8B89"/>
<stop offset="0.5208" stop-color="#FC8ADC"/>
<stop offset="0.7552" stop-color="#7954FF"/>
<stop offset="1" stop-color="#70BCFF"/>
</linearGradient>
<clipPath id="clip0_2_100">
<rect width="36" height="36" fill="white"/>
</clipPath>
</defs>
</svg>
